<svg id="Layer_1" data-name="Layer 1" xmlns="http://www.w3.org/2000/svg" viewBox="0 0 1920 1080"><defs><style>.cls-1,.cls-3,.cls-4{fill:#fff;}.cls-2{fill:#c1272d;}.cls-3{font-size:197.27px;font-family:BodoniBT-Bold, Bodoni Bd BT;font-weight:700;}.cls-4{font-size:145.75px;font-family:BernardMT-Condensed, Bernard MT Condensed;}</style></defs><title>Artboard 1</title><circle class="cls-1" cx="992" cy="333" r="107.5" transform="translate(55.08 798.98) rotate(-45)"/><path class="cls-2" d="M992,228A105,105,0,1,1,887,333,105.12,105.12,0,0,1,992,228m0-5a110,110,0,1,0,110,110A110,110,0,0,0,992,223Z"/><circle class="cls-2" cx="992.5" cy="333.5" r="87" transform="translate(54.88 799.48) rotate(-45)"/><path class="cls-2" d="M992.5,249A84.5,84.5,0,1,1,908,333.5,84.6,84.6,0,0,1,992.5,249m0-5a89.5,89.5,0,1,0,89.5,89.5A89.5,89.5,0,0,0,992.5,244Z"/><text class="cls-3" transform="translate(903 374.64) scale(1.35 1)">f</text><text class="cls-4" transform="translate(968.62 405.12) scale(2.07 1)">s</text></svg>